<svg xmlns="http://www.w3.org/2000/svg" xmlns:xlink="http://www.w3.org/1999/xlink" viewBox="0 0 359.96 1015.1" version="1.0"><defs><linearGradient id="a" y2="304.85" gradientUnits="userSpaceOnUse" x2="222.23" y1="367.48" x1="239.41"><stop offset="0" stop-color="#e2c86a"/><stop offset="1" stop-color="#fffe4f"/></linearGradient></defs><g transform="translate(-163.11 -11.889)"><g id="c" transform="matrix(.93305 -.1468 .14111 .97067 24.763 -211.38)"><path id="b" d="M225.34 264.69c-1.49 8.53-3 17.05-4.44 25.59-1.3 7.63-2.67 15.25-3.96 22.88-.23.92-.23 1.87-.35 2.81-.27.93-.65 1.85-.62 2.84-.23 1.04-.49 2.07-.71 3.1-.47 2.16-1.07 4.28-1.54 6.44-.39 1.68-.77 3.36-1.06 5.06-.88 4.3-1.87 8.58-2.69 12.9-.13 1.41-.25 2.81-.35 4.22.2 1.95.37 3.92.96 5.8a19.57 19.57 0 002.62 5.82c.63.87 1.23 1.76 1.94 2.57 1.15 1.46 2.5 2.76 4.05 3.78 1.2.92 2.45 1.79 3.84 2.41.97.48 1.94.98 3 1.21 1.9.56 3.84 1.01 5.81 1.19 1.29.03 2.59-.01 3.87-.21 1.07-.11 2.08-.52 3.1-.85.98-.35 2-.71 2.81-1.37 1.18-.85 2.29-1.8 3.24-2.9.67-.81 1.26-1.67 1.81-2.57.77-1.13 1.28-2.4 1.63-3.72.41-1.34.62-2.72.77-4.11.18-1.22-.06-2.44-.26-3.64-.27-1.12-.63-2.22-1.13-3.25-.56-1.28-1.34-2.45-2.24-3.52-.76-.99-1.67-1.87-2.54-2.77-1.7-1.68-3.58-3.18-5.36-4.77-.97-.83-1.94-1.65-2.85-2.55-.92-1.04-1.65-2.24-2.47-3.36-.87-1.31-1.74-2.61-2.56-3.94-.93-1.68-1.72-3.43-2.55-5.17-.66-1.47-1.08-3.03-1.61-4.55-.8-2.58-1.55-5.17-2.15-7.81-.52-2.1-1.03-4.21-1.54-6.31-.14-1.11-.37-2.22-.24-3.34.63-7.33 1.5-14.64 2.27-21.96.53-4.95 1.06-9.91 1.6-14.86l-.06-1.19-.04.1z" fill-rule="evenodd" stroke="#000" stroke-width="1" fill="url(#a)"/><use xlink:href="#b" transform="rotate(-3.419 229.371 318.962)" height="1052.362" width="744.094"/><use xlink:href="#b" transform="rotate(-7.836 604.817 391.615)" height="1052.362" width="744.094"/><use xlink:href="#b" transform="rotate(-3.443 1948.62 583.759)" height="1052.362" width="744.094"/><use xlink:href="#b" transform="rotate(-15.328 797.904 468.095)" height="1052.362" width="744.094"/><use xlink:href="#b" transform="rotate(-22.789 731.234 486.194)" height="1052.362" width="744.094"/><use xlink:href="#b" transform="rotate(-18.219 1022.003 548.386)" height="1052.362" width="744.094"/><use xlink:href="#b" transform="rotate(-29.363 804.015 547.828)" height="1052.362" width="744.094"/><use xlink:href="#b" transform="rotate(-28.867 912.231 587.501)" height="1052.362" width="744.094"/><use xlink:href="#b" transform="scale(-1 1) rotate(5.669 -186.704 -4728.04)" height="1052.362" width="744.094"/><use xlink:href="#b" transform="scale(-1 1) rotate(-9.826 379.472 3227.578)" height="1052.362" width="744.094"/><use xlink:href="#b" transform="scale(-1 1) rotate(-9.518 707.029 3308.379)" height="1052.362" width="744.094"/><use xlink:href="#b" transform="scale(-1 1) rotate(-6.456 1513.611 4672.345)" height="1052.362" width="744.094"/><use xlink:href="#b" transform="scale(-1 1) rotate(-16.785 750.585 2040.544)" height="1052.362" width="744.094"/><use xlink:href="#b" transform="scale(-1 1) rotate(-26.587 578.605 1448.402)" height="1052.362" width="744.094"/><use xlink:href="#b" transform="scale(-1 1) rotate(-30.705 594.885 1324.407)" height="1052.362" width="744.094"/><use xlink:href="#b" transform="scale(-1 1) rotate(-32.214 658.534 1297.818)" height="1052.362" width="744.094"/><path d="M209.2 752.07c-3.13 36.78-8.18 73.49-17.37 109.27-2.38 18.48-5.34 37.02-11.7 54.6-6.49 27.59-13.13 55.5-26.73 80.61-8.76 18.05-18.2 36.65-32.82 50.65-5.51 3.1-19.93 13.3-22.241 6.2 21.601-25.6 34.791-57.05 45.921-88.32 5.57-21.34 10.11-43.02 16.84-64.01 2.42-19.56 6-38.97 10.78-58.07 4.35-24.04 9.2-48.15 9.77-72.65 3.98-12.02 18.81-11.64 27.55-18.28z" stroke="#000" stroke-linecap="round" stroke-width=".5" fill="#e2c86a"/></g><use xlink:href="#c" transform="rotate(-6.953 1555.97 965.485)" height="1052.362" width="744.094"/><use xlink:href="#c" transform="rotate(6.099 -694.983 1114.304)" height="1052.362" width="744.094"/><use xlink:href="#c" transform="rotate(11.325 -863.792 1096.344)" height="1052.362" width="744.094"/></g></svg>